<svg xmlns="http://www.w3.org/2000/svg" width="19.498" height="17.803" viewBox="0 0 19.498 17.803">
    <path id="prefix__buy" d="M18.7 24.579H3.452l-.227-2.515a.8.8 0 0 0-.8-.726H.8a.8.8 0 1 0 0 1.6h.9l.921 10.222a3.066 3.066 0 0 0 1.149 2.074 2.422 2.422 0 1 0 4.194.665h4.383a2.429 2.429 0 1 0 2.283-1.6H5.687a1.487 1.487 0 0 1-1.367-.9l12.8-.749a.8.8 0 0 0 .73-.6l1.627-6.483a.8.8 0 0 0-.777-.988zM5.682 37.545a.823.823 0 1 1 .826-.823.826.826 0 0 1-.826.823zm8.948 0a.823.823 0 1 1 .826-.823.826.826 0 0 1-.826.823zm1.806-6.445L4.1 31.82l-.5-5.645h14.072z" transform="translate(0 -21.338)" style="fill:#46362b"/>
</svg>
