<svg xmlns="http://www.w3.org/2000/svg" width="194.48" height="188" viewBox="0 0 194.48 188">
    <defs>
        <style>
            .prefix__cls-3{fill:#e91e63}.prefix__cls-4{fill:#ad1457}
        </style>
    </defs>
    <g id="prefix__Page-1" transform="translate(-.001 -.002)">
        <g id="prefix___010---Star-Shaped-Box" data-name="010---Star-Shaped-Box" transform="translate(.001 .002)">
            <path id="prefix__Shape" d="M97.306 164.4l49.234 17.729a6.807 6.807 0 0 0 9.077-6.561l-1.443-53.124a6.769 6.769 0 0 1 1.378-4.279l32.057-42.2a6.772 6.772 0 0 0-3.469-10.59l-50.274-15.017a6.808 6.808 0 0 1-3.686-2.7L100.632 3.986a6.807 6.807 0 0 0-11.268 0L59.817 47.658a6.807 6.807 0 0 1-3.686 2.7L5.853 65.373a6.772 6.772 0 0 0-3.469 10.59l32.057 42.2a6.769 6.769 0 0 1 1.378 4.279l-1.439 53.121a6.807 6.807 0 0 0 9.077 6.561L92.681 164.4a6.808 6.808 0 0 1 4.625 0z" transform="translate(2.248 2.235)" style="fill:#ffdc00"/>
            <path id="prefix__Shape-2" d="M125.986 75.949a6.772 6.772 0 0 0-3.469-10.59L72.23 50.343a6.808 6.808 0 0 1-3.686-2.7L39 3.972A6.775 6.775 0 0 0 28.5 3.1a6.708 6.708 0 0 1 .772.875l29.547 43.668a6.807 6.807 0 0 0 3.686 2.7l50.278 15.015a6.772 6.772 0 0 1 3.469 10.59L84.2 118.146a6.769 6.769 0 0 0-1.378 4.279l1.43 53.124a6.684 6.684 0 0 1-2.535 5.423l3.157 1.138a6.807 6.807 0 0 0 9.1-6.561l-1.443-53.124a6.769 6.769 0 0 1 1.378-4.279z" data-name="Shape" transform="translate(63.884 2.249)" style="fill:#fec108"/>
            <path id="prefix__Shape-3" d="M68.073 52.388h-2.561a10.078 10.078 0 0 0-10.373 9.757v3.533a26.993 26.993 0 0 1-18.739 2.14 39.386 39.386 0 0 1-21.62-16.662 10.668 10.668 0 0 1-1.2-9.368 39.548 39.548 0 0 1 18.9-20.811A8.555 8.555 0 0 1 36.759 20c25.252 1.556 30.99 30.569 31.314 32.384z" class="prefix__cls-3" data-name="Shape" transform="translate(29.141 44.823)"/>
            <path id="prefix__Shape-4" d="M42.3 46.46a9.4 9.4 0 0 0-2.82 6.127C25.9 45.131 21.331 30.965 20.035 25.649c-.259-1.037.94-1.88 2.139-1.588C36.5 27.432 40.554 41.047 42.3 46.46z" class="prefix__cls-4" data-name="Shape" transform="translate(44.828 53.798)"/>
            <path id="prefix__Shape-5" d="M61.383 40.282c-19.45 3.242-22.692 29.175-22.692 29.175L32.208 53.8 16 59.731a34.828 34.828 0 0 1 13.68-23.5 26.993 26.993 0 0 0 18.736-2.141v1.329a5.057 5.057 0 0 0 5.184 4.863z" class="prefix__cls-3" data-name="Shape" transform="translate(35.864 76.412)"/>
            <path id="prefix__Shape-6" d="M51.936 39.75v4.862a5.057 5.057 0 0 1-5.187 4.862H31.19A5.057 5.057 0 0 1 26 44.613c0-4.684-.023-5.109.032-5.446a10.107 10.107 0 0 1 10.341-9.174h5.187a10.088 10.088 0 0 1 10.376 9.757z" class="prefix__cls-3" data-name="Shape" transform="translate(58.277 67.218)"/>
            <path id="prefix__Shape-7" d="M35.956 29.993h-5.187a10.885 10.885 0 0 0-2.269.246 9.945 9.945 0 0 1 8.1 9.511v4.862a5.057 5.057 0 0 1-5.187 4.862h9.725a5.057 5.057 0 0 0 5.187-4.862V39.75a10.088 10.088 0 0 0-10.373-9.757z" class="prefix__cls-4" data-name="Shape" transform="translate(63.884 67.218)"/>
            <path id="prefix__Shape-8" d="M83.3 51.156a39.386 39.386 0 0 1-21.619 16.662 26.993 26.993 0 0 1-18.737-2.139v-3.534a10.078 10.078 0 0 0-10.373-9.757H30.01C30.334 50.573 36.072 21.56 61.324 20a8.555 8.555 0 0 1 4.279.972A39.548 39.548 0 0 1 84.5 41.788a10.668 10.668 0 0 1-1.2 9.368z" class="prefix__cls-3" data-name="Shape" transform="translate(67.269 44.823)"/>
            <path id="prefix__Shape-9" d="M70.4 41.788a39.548 39.548 0 0 0-18.9-20.812A8.555 8.555 0 0 0 47.224 20a30.575 30.575 0 0 0-5.6.914c.052.026.107.032.159.058a39.548 39.548 0 0 1 18.9 20.811 10.668 10.668 0 0 1-1.2 9.368 37.943 37.943 0 0 1-23.178 17 25.389 25.389 0 0 0 11.284-.324 39.386 39.386 0 0 0 21.617-16.661 10.668 10.668 0 0 0 1.2-9.378z" class="prefix__cls-4" data-name="Shape" transform="translate(81.369 44.823)"/>
            <path id="prefix__Shape-10" d="M55.39 25.649c-1.3 5.316-5.867 19.482-19.45 26.938a9.4 9.4 0 0 0-2.82-6.127c1.75-5.414 5.8-19.028 20.131-22.4 1.199-.291 2.398.551 2.139 1.589z" class="prefix__cls-4" data-name="Shape" transform="translate(74.241 53.798)"/>
            <path id="prefix__Shape-11" d="M75.383 59.731L59.175 53.8l-6.483 15.656S49.45 43.523 30 40.282h7.78a5.057 5.057 0 0 0 5.187-4.862v-1.33A26.993 26.993 0 0 0 61.7 36.229a34.828 34.828 0 0 1 13.683 23.502z" class="prefix__cls-3" data-name="Shape" transform="translate(67.247 76.412)"/>
            <path id="prefix__Shape-12" d="M49.115 54.411l10.493 3.841a34.828 34.828 0 0 0-13.68-23.5 25.266 25.266 0 0 1-8.892.684 34.413 34.413 0 0 1 12.079 18.975z" class="prefix__cls-4" data-name="Shape" transform="translate(83.021 77.891)"/>
            <path id="prefix__Shape-13" d="M52.32 45.4a34.112 34.112 0 0 0-4.506 4.052H20.649L5.9 30h25.641A38.848 38.848 0 0 0 52.32 45.4z" class="prefix__cls-4" data-name="Shape" transform="translate(13.223 67.243)"/>
            <path id="prefix__Shape-14" d="M46.45 40.214v48.4l-7.423-2.658a6.616 6.616 0 0 0-4.6 0L27 88.612v-48.4A21.943 21.943 0 0 1 36.725 36a21.943 21.943 0 0 1 9.725 4.214z" class="prefix__cls-4" data-name="Shape" transform="translate(60.522 80.693)"/>
            <path id="prefix__Shape-15" d="M86.2 30L71.451 49.45H44.286a34.111 34.111 0 0 0-4.506-4.05A38.848 38.848 0 0 0 60.559 30z" class="prefix__cls-4" data-name="Shape" transform="translate(89.17 67.243)"/>
            <path id="prefix__Shape-16" d="M46.45 10.021v63.893a50.605 50.605 0 0 0-9.693 21.071h-.065A50.605 50.605 0 0 0 27 73.914V10.021l4.084-6.029a6.807 6.807 0 0 1 11.281 0z" class="prefix__cls-4" data-name="Shape" transform="translate(60.522 2.226)"/>
            <g id="prefix__Grupo_11298" data-name="Grupo 11298">
                <path id="prefix__Shape-17" d="M34.1 122.361a3.527 3.527 0 0 1 .713 2.227l-1.43 53.124a10.049 10.049 0 0 0 13.44 9.7l49.224-17.729a3.566 3.566 0 0 1 2.418 0l49.224 17.729a10.049 10.049 0 0 0 13.414-9.7l-1.443-53.124a3.54 3.54 0 0 1 .713-2.23l32.06-42.2a10.01 10.01 0 0 0-5.116-15.658l-50.275-15.011a3.566 3.566 0 0 1-1.926-1.413L105.562 4.408a10.049 10.049 0 0 0-16.63 0L59.375 48.079a3.546 3.546 0 0 1-1.922 1.41L7.165 64.5a10.01 10.01 0 0 0-5.121 15.662zm9.054-21.875a43.856 43.856 0 0 0 15.236 12.967H35.478l-9.851-12.967zm49.993-6.356a13.985 13.985 0 0 0-4.289 1.135c-2.558-6.944-7.926-17.456-21.09-20.555a5.148 5.148 0 0 0-4.862 1.326 4.405 4.405 0 0 0-1.18 4.182A46.116 46.116 0 0 0 81.039 108.2v.1c-18.348 7.219-30.925-8.843-34.426-14.111a7.41 7.41 0 0 1-.827-6.535A36.326 36.326 0 0 1 63.152 68.68a4.862 4.862 0 0 1 2.548-.61c18.283 1.13 25.226 18.306 27.447 26.06zM128.8 68.077a4.862 4.862 0 0 1 2.545.6 36.349 36.349 0 0 1 17.365 18.977 7.42 7.42 0 0 1-.83 6.535c-3.5 5.268-16.095 21.324-34.43 14.114v-.11a46.1 46.1 0 0 0 19.32-27.962 4.4 4.4 0 0 0-1.173-4.2 5.167 5.167 0 0 0-4.857-1.331c-13.184 3.105-18.555 13.615-21.113 20.562a13.994 13.994 0 0 0-4.256-1.135c2.282-7.722 9.342-24.941 27.428-26.06zm22.539 32.416h17.531l-9.851 12.967h-22.907a43.869 43.869 0 0 0 15.226-12.973zM66.452 116.16a29.143 29.143 0 0 0 5.4.535 30.886 30.886 0 0 0 9.861-1.682 8.237 8.237 0 0 0 3.329 3.7 37.529 37.529 0 0 0-11.232 16.881l-2.742-6.623a3.242 3.242 0 0 0-4.11-1.8l-10.636 3.89a31.262 31.262 0 0 1 10.13-14.901zm28.2-15.693h2.561v.019h.065v-.019h2.561a6.843 6.843 0 0 1 7.132 6.5v4.862a1.828 1.828 0 0 1-1.945 1.621H89.468a1.828 1.828 0 0 1-1.945-1.621v-4.859a6.84 6.84 0 0 1 7.132-6.5zm17.408.878a12.985 12.985 0 0 0-1.06-1.782c1.767-5.345 5.245-14.237 14.587-17.745a39.185 39.185 0 0 1-13.525 19.528zm-29.625 0a39.162 39.162 0 0 1-13.526-19.527c9.339 3.5 12.817 12.4 14.587 17.748a12.93 12.93 0 0 0-1.06 1.78zm27.017 17.355a8.211 8.211 0 0 0 3.326-3.7 30.8 30.8 0 0 0 9.861 1.692 28.809 28.809 0 0 0 5.4-.528 31.272 31.272 0 0 1 10.133 14.912l-10.636-3.89a3.242 3.242 0 0 0-4.11 1.8l-2.742 6.6a37.538 37.538 0 0 0-11.232-16.9zm-64.833 62.611a3.53 3.53 0 0 1-3.3-.464 3.478 3.478 0 0 1-1.462-2.96l1.443-53.124a10.049 10.049 0 0 0-1.105-4.827h14.263a39.01 39.01 0 0 0-5.786 15.745 3.242 3.242 0 0 0 4.321 3.507l13.291-4.862 5.294 12.788a3.242 3.242 0 0 0 2.979 2 3.3 3.3 0 0 0 .438-.029 3.242 3.242 0 0 0 2.781-2.811 44.624 44.624 0 0 1 6.506-17.181v37.927zm52.628-18.322a10.078 10.078 0 0 0-3.407.593l-3.076 1.109v-42.035a18.406 18.406 0 0 1 6.483-2.629 18.325 18.325 0 0 1 6.483 2.639v42.025l-3.076-1.109a10.048 10.048 0 0 0-3.406-.593zm55.928 17.858a3.537 3.537 0 0 1-3.3.464l-39.662-14.286v-37.9a44.9 44.9 0 0 1 6.509 17.148 3.242 3.242 0 0 0 2.785 2.807 3.294 3.294 0 0 0 .431.029 3.242 3.242 0 0 0 2.992-2l5.294-12.788 13.291 4.862a3.242 3.242 0 0 0 4.321-3.507 39.01 39.01 0 0 0-5.8-15.741H154.3a10.049 10.049 0 0 0-1.1 4.827l1.426 53.124a3.478 3.478 0 0 1-1.449 2.96zm-18-125.147l50.288 15.012a3.537 3.537 0 0 1 1.815 5.511L173.8 94h-18.78a13.884 13.884 0 0 0-.172-8.428 42.9 42.9 0 0 0-20.465-22.617 11.116 11.116 0 0 0-5.983-1.345 31.814 31.814 0 0 0-18.186 6.879v-45.64L129.742 51.7a10.1 10.1 0 0 0 5.433 4zm-35.01-47.652l3.566 5.219v61.857a51.266 51.266 0 0 0-6.483 11.4 51.267 51.267 0 0 0-6.483-11.4V13.267L94.3 8.041a3.663 3.663 0 0 1 5.893 0zM6.66 73.011a3.5 3.5 0 0 1 2.36-2.3L59.32 55.7a10.085 10.085 0 0 0 5.443-3.99l19.518-28.864v45.642A31.814 31.814 0 0 0 66.1 61.606a11.252 11.252 0 0 0-5.981 1.349 42.874 42.874 0 0 0-20.469 22.62A13.894 13.894 0 0 0 39.475 94H20.7L7.2 76.239a3.482 3.482 0 0 1-.545-3.229z" data-name="Shape" transform="translate(-.001 -.002)"/>
                <path id="prefix__Shape-18" d="M13.949 19.989a3.242 3.242 0 0 0 4.584 0l.95-.95.95.95a3.242 3.242 0 0 0 4.584-4.584l-.95-.95.95-.95a3.242 3.242 0 0 0-4.584-4.584l-.95.95-.95-.95a3.242 3.242 0 0 0-4.584 4.584l.95.95-.95.95a3.242 3.242 0 0 0 0 4.584z" data-name="Shape" transform="translate(29.139 17.955)"/>
                <path id="prefix__Shape-19" d="M1.949 47.989a3.242 3.242 0 0 0 4.584 0l.95-.95.95.95a3.242 3.242 0 1 0 4.584-4.584l-.95-.95.95-.95a3.242 3.242 0 0 0-4.584-4.584l-.95.95-.95-.95a3.242 3.242 0 0 0-4.584 4.584l.95.95-.95.95a3.242 3.242 0 0 0 0 4.584z" data-name="Shape" transform="translate(2.239 80.721)"/>
                <path id="prefix__Shape-20" d="M16.044 44.949a3.242 3.242 0 0 0-4.584 0l-.95.95-.95-.95a3.242 3.242 0 0 0-4.584 4.584l.95.95-.95.95a3.242 3.242 0 1 0 4.584 4.584l.95-.95.95.95a3.242 3.242 0 1 0 4.584-4.584l-.95-.95.95-.95a3.242 3.242 0 0 0 0-4.584z" data-name="Shape" transform="translate(8.936 98.627)"/>
                <path id="prefix__Shape-21" d="M67.044 36.949a3.242 3.242 0 0 0-4.584 0l-.95.95-.95-.95a3.242 3.242 0 0 0-4.584 4.584l.95.95-.95.95a3.242 3.242 0 1 0 4.584 4.584l.95-.95.95.95a3.242 3.242 0 0 0 4.584-4.584l-.95-.95.95-.95a3.242 3.242 0 0 0 0-4.584z" data-name="Shape" transform="translate(123.26 80.694)"/>
                <path id="prefix__Shape-22" d="M52.949 55.989a3.242 3.242 0 0 0 4.584 0l.95-.95.95.95a3.242 3.242 0 0 0 4.584-4.584l-.95-.95.95-.95a3.242 3.242 0 0 0-4.584-4.584l-.95.95-.95-.95a3.242 3.242 0 0 0-4.584 4.584l.95.95-.95.95a3.242 3.242 0 0 0 0 4.584z" data-name="Shape" transform="translate(116.563 98.654)"/>
                <path id="prefix__Shape-23" d="M6.949 16.044a3.242 3.242 0 0 0 4.584 0l.95-.95.95.95a3.242 3.242 0 0 0 4.584-4.584l-.95-.95.95-.95a3.242 3.242 0 1 0-4.584-4.584l-.95.95-.95-.95a3.242 3.242 0 0 0-4.584 4.585l.95.95-.95.95a3.242 3.242 0 0 0 0 4.584z" data-name="Shape" transform="translate(13.448 8.933)"/>
                <path id="prefix__Shape-24" d="M4.949 23.989a3.242 3.242 0 0 0 4.584 0l.95-.95.95.95a3.242 3.242 0 1 0 4.584-4.584l-.95-.95.95-.95a3.242 3.242 0 0 0-4.584-4.584l-.95.95-.95-.95a3.242 3.242 0 0 0-4.584 4.584l.95.95-.95.95a3.242 3.242 0 0 0 0 4.584z" data-name="Shape" transform="translate(8.964 26.921)"/>
                <path id="prefix__Shape-25" d="M43.949 19.989a3.242 3.242 0 0 0 4.584 0l.95-.95.95.95a3.242 3.242 0 0 0 4.584-4.584l-.95-.95.95-.95a3.242 3.242 0 0 0-4.584-4.584l-.95.95-.95-.95a3.242 3.242 0 0 0-4.584 4.584l.95.95-.95.95a3.242 3.242 0 0 0 0 4.584z" data-name="Shape" transform="translate(96.389 17.955)"/>
                <path id="prefix__Shape-26" d="M50.949 16.044a3.242 3.242 0 0 0 4.584 0l.95-.95.95.95a3.242 3.242 0 0 0 4.584-4.584l-.95-.95.95-.95a3.242 3.242 0 1 0-4.584-4.584l-.95.95-.95-.95a3.242 3.242 0 0 0-4.584 4.584l.95.95-.95.95a3.242 3.242 0 0 0 0 4.584z" data-name="Shape" transform="translate(112.08 8.933)"/>
                <path id="prefix__Shape-27" d="M57.561 12.922a3.242 3.242 0 0 0-4.584 4.584l.95.95-.95.95a3.242 3.242 0 1 0 4.584 4.584l.95-.95.95.95a3.242 3.242 0 0 0 4.584-4.584l-.95-.95.95-.95a3.242 3.242 0 0 0-4.584-4.584l-.95.95z" data-name="Shape" transform="translate(116.535 26.921)"/>
            </g>
        </g>
    </g>
</svg>
