<svg xmlns="http://www.w3.org/2000/svg" width="10.872" height="11.065" viewBox="0 0 10.872 11.065">
    <defs>
        <style>
            .prefix__cls-1{fill:#46362b}
        </style>
    </defs>
    <g id="prefix__sort" transform="translate(-4.457)">
        <g id="prefix__Grupo_11311" data-name="Grupo 11311" transform="translate(4.457)">
            <path id="prefix__Trazado_43819" d="M253.14 438.536h-1.58a.19.19 0 0 0-.2.2v1.185a.19.19 0 0 0 .2.2h1.581a.19.19 0 0 0 .2-.2v-1.185a.19.19 0 0 0-.2-.2z" class="prefix__cls-1" data-name="Trazado 43819" transform="translate(-246.022 -429.052)"/>
            <path id="prefix__Trazado_43820" d="M8.611 8.694H7.425V.2a.19.19 0 0 0-.2-.2H6.042a.19.19 0 0 0-.2.2v8.5H4.659a.183.183 0 0 0-.185.123.188.188 0 0 0 .043.216l1.976 1.976a.222.222 0 0 0 .142.055.206.206 0 0 0 .142-.055l1.97-1.97a.232.232 0 0 0 .062-.148.19.19 0 0 0-.2-.2z" class="prefix__cls-1" data-name="Trazado 43820" transform="translate(-4.457)"/>
            <path id="prefix__Trazado_43821" d="M254.323 292.362h-2.766a.19.19 0 0 0-.2.2v1.186a.19.19 0 0 0 .2.2h2.766a.19.19 0 0 0 .2-.2v-1.186a.19.19 0 0 0-.2-.2z" class="prefix__cls-1" data-name="Trazado 43821" transform="translate(-246.019 -286.039)"/>
            <path id="prefix__Trazado_43822" d="M256.839.056A.193.193 0 0 0 256.7 0h-5.14a.19.19 0 0 0-.2.2v1.183a.19.19 0 0 0 .2.2h5.14a.19.19 0 0 0 .2-.2V.2a.192.192 0 0 0-.061-.144z" class="prefix__cls-1" data-name="Trazado 43822" transform="translate(-246.022)"/>
            <path id="prefix__Trazado_43823" d="M255.508 146.181h-3.952a.19.19 0 0 0-.2.2v1.186a.19.19 0 0 0 .2.2h3.952a.19.19 0 0 0 .2-.2v-1.186a.19.19 0 0 0-.2-.2z" class="prefix__cls-1" data-name="Trazado 43823" transform="translate(-246.019 -143.02)"/>
        </g>
    </g>
</svg>
